<?xml version="1.0" encoding="UTF-8"?>
<svg id="Camada_1" data-name="Camada 1" xmlns="http://www.w3.org/2000/svg" viewBox="0 0 110.94 24">
  <defs>
    <style>
      .cls-1 {
        fill: #fff;
      }
    </style>
  </defs>
  <g>
    <path class="cls-1" d="m3.77,5.44v9.42c.02.51.18.67.71.8v.37H0v-.37c.53-.14.67-.3.71-.8V1.88c-.05-.51-.18-.67-.71-.8v-.37h5.88v.37c-.34.07-.53.3-.53.6,0,.16.05.32.16.53l4.18,7.69,4.25-7.56c.18-.34.28-.57.28-.76,0-.3-.18-.48-.55-.51v-.37h5.76v.37c-.53.14-.69.3-.71.8v12.97c.02.51.18.67.71.8v.37h-4.75v-.37c.53-.14.67-.3.71-.8V5.44l-5.97,10.38L3.77,5.44Z"/>
    <path class="cls-1" d="m30.82,13.5h9.87c.48-.05.67-.18.8-.71h.34v3.95h-.34c-.14-.53-.3-.67-.8-.71h-13.92v-.37c.53-.14.67-.3.71-.8V1.88c-.05-.51-.18-.67-.71-.8v-.37h13.64c.51-.05.67-.18.8-.71h.37v3.95h-.37c-.14-.53-.3-.67-.8-.71h-9.6v3.65h6.22c.51-.02.67-.18.8-.73h.37v3.88h-.37c-.14-.53-.3-.67-.8-.71h-6.22v4.18Z"/>
    <path class="cls-1" d="m57.16,14.86c.05.51.18.67.71.8v.37h-4.75v-.37c.53-.14.67-.3.71-.8V3.24h-4.75c-.51.05-.67.18-.8.71h-.37V0h.37c.14.53.3.67.8.71h12.84c.51-.05.67-.18.8-.71h.37v3.95h-.37c-.14-.53-.3-.67-.8-.71h-4.75v11.62Z"/>
    <path class="cls-1" d="m73.49,14.86c.05.51.18.67.71.8v.37h-4.75v-.37c.53-.14.67-.3.71-.8V1.88c-.05-.51-.18-.67-.71-.8v-.37h9.55c2.34,0,3.56.25,4.57.92,1.1.71,1.75,2.04,1.75,3.63,0,2.5-1.38,3.97-4.16,4.41l2.96,4.23c1.1,1.54,1.33,1.72,2.04,1.77v.37h-5.53v-.37c.37-.05.57-.21.57-.39,0-.16-.09-.34-.55-.99l-3.08-4.5h-4.09v5.07Zm5.17-7.6c1.52,0,1.95-.07,2.48-.34.53-.3.85-.92.85-1.68s-.32-1.35-.85-1.65c-.53-.3-.92-.34-2.48-.34h-5.17v4.02h5.17Z"/>
    <path class="cls-1" d="m97.6,12.12l-1.03,2.16c-.11.28-.21.55-.21.71,0,.32.25.55.73.67v.37h-5.05v-.37c.57-.09.76-.28,1.22-1.17l5.63-11.78c.18-.37.28-.67.28-.9,0-.34-.21-.6-.64-.73v-.37h5.42v.37c-.39.11-.67.34-.67.6,0,.23.14.67.39,1.15l5.67,11.46c.55,1.06.78,1.29,1.38,1.38v.37h-5.63v-.37c.48-.07.73-.3.73-.69,0-.18-.07-.39-.21-.69l-1.06-2.16h-6.96Zm3.51-7.56l-2.53,5.47h5.01l-2.48-5.47Z"/>
  </g>
  <g>
    <path class="cls-1" d="m4.16,19.8v4.12h-.79v-2.09l-1.29,1.55-1.29-1.55v2.09H0v-4.12h.05l2.03,2.38,2.03-2.38h.05Z"/>
    <path class="cls-1" d="m7.72,20.49v1.03h2v.72h-2v.97h2.25v.71h-3.04v-4.13h3.04v.7h-2.25Z"/>
    <path class="cls-1" d="m14.27,23.92h-1.63v-4.13h1.63c.59,0,1.07.17,1.45.52.2.18.36.41.46.67.1.26.15.55.15.88s-.05.62-.15.88c-.1.26-.26.48-.46.67-.18.17-.4.3-.65.38-.25.09-.52.13-.81.13Zm-.84-.7h.84c.15,0,.3-.02.45-.05.15-.03.29-.1.41-.2.12-.1.22-.24.3-.41.08-.18.12-.41.12-.69s-.04-.52-.12-.7-.18-.32-.3-.41-.26-.16-.41-.2c-.15-.03-.3-.05-.44-.05h-.84v2.72Z"/>
    <path class="cls-1" d="m19.78,23.92h-.79v-4.12h.79v4.12Z"/>
    <path class="cls-1" d="m26.44,22.91c-.09.17-.2.31-.33.45-.13.13-.28.25-.44.34-.16.1-.33.17-.52.22-.19.05-.38.08-.58.08-.29,0-.57-.06-.83-.17-.26-.11-.49-.27-.68-.46-.19-.19-.35-.42-.46-.68-.11-.26-.17-.54-.17-.83s.06-.57.17-.83c.11-.26.27-.49.46-.68s.42-.35.68-.46c.26-.11.54-.17.83-.17.2,0,.39.03.58.08.19.05.36.13.52.22.16.1.31.21.44.34.13.13.24.28.33.44l-.74.3c-.06-.09-.13-.17-.21-.25-.08-.08-.17-.15-.27-.21-.1-.06-.2-.11-.31-.14-.11-.03-.22-.05-.34-.05-.19,0-.36.04-.53.12s-.31.18-.43.31c-.12.13-.22.28-.29.45s-.11.35-.11.53.04.37.11.54.17.32.29.45c.12.13.26.23.43.31.16.08.34.12.53.12.12,0,.23-.02.34-.05.11-.03.21-.08.31-.14.1-.06.19-.13.27-.21.08-.08.15-.17.21-.26l.74.3Z"/>
    <path class="cls-1" d="m29.81,23.92h-.79v-4.12h.79v4.12Z"/>
    <path class="cls-1" d="m36.19,23.92l-2.71-2.45v2.45h-.79v-4.12h.08l2.71,2.49v-2.49h.79v4.12h-.08Z"/>
    <path class="cls-1" d="m38.62,23.92l2.11-4.12h.08l2.11,4.12h-.86l-.32-.65h-1.95l-.32.65h-.86Zm1.56-1.34h1.18l-.59-1.25-.59,1.25Z"/>
    <path class="cls-1" d="m50.69,23.92h-1.63v-4.13h1.63c.59,0,1.07.17,1.45.52.2.18.36.41.46.67.1.26.15.55.15.88s-.05.62-.15.88c-.1.26-.26.48-.46.67-.18.17-.4.3-.65.38-.25.09-.52.13-.81.13Zm-.84-.7h.84c.15,0,.3-.02.45-.05.15-.03.29-.1.41-.2.12-.1.22-.24.3-.41.08-.18.12-.41.12-.69s-.04-.52-.12-.7-.18-.32-.3-.41-.26-.16-.41-.2c-.15-.03-.3-.05-.44-.05h-.84v2.72Z"/>
    <path class="cls-1" d="m57.28,24c-.29,0-.57-.06-.83-.17-.26-.11-.49-.27-.68-.46-.19-.19-.35-.42-.46-.68-.11-.26-.17-.54-.17-.83s.06-.57.17-.83.27-.49.46-.68c.19-.19.42-.35.68-.46.26-.11.54-.17.83-.17s.58.06.83.17c.26.11.49.27.68.46.19.19.35.42.46.68s.17.54.17.83-.06.58-.17.83c-.11.26-.27.49-.46.68s-.42.35-.68.46c-.26.11-.54.17-.83.17Zm0-3.55c-.19,0-.36.04-.53.12-.16.08-.31.18-.43.31s-.22.28-.29.45c-.07.17-.11.35-.11.53s.04.37.11.54.17.32.29.45c.12.13.26.23.43.31.16.08.34.12.53.12s.36-.04.53-.12c.16-.08.31-.18.43-.31.12-.13.22-.28.29-.45s.11-.35.11-.54-.04-.36-.11-.53c-.07-.17-.17-.32-.29-.45s-.26-.23-.43-.31c-.16-.08-.34-.12-.53-.12Z"/>
    <path class="cls-1" d="m68.75,20.49h-1.18v3.43h-.79v-3.43h-1.18v-.7h3.15v.7Z"/>
    <path class="cls-1" d="m71.94,23.92h-.79v-4.13h1.88c.21,0,.4.03.58.1.18.07.32.17.45.29s.22.28.29.45c.07.17.1.37.1.57,0,.31-.08.58-.23.82-.16.23-.36.4-.62.5.35.46.69.92,1.03,1.39h-.94c-.17-.21-.33-.43-.48-.65-.16-.22-.31-.44-.47-.67h-.78v1.31Zm0-2.01h1.09c.07,0,.15-.01.22-.04s.15-.07.21-.13c.06-.06.11-.13.15-.22.04-.09.06-.19.06-.3,0-.06,0-.13-.02-.21-.01-.08-.05-.16-.09-.24s-.11-.14-.19-.19c-.08-.05-.19-.08-.33-.08h-1.09v1.42Z"/>
    <path class="cls-1" d="m76.59,23.92l2.11-4.12h.08l2.11,4.12h-.86l-.32-.65h-1.95l-.32.65h-.86Zm1.56-1.34h1.18l-.59-1.25-.59,1.25Z"/>
    <path class="cls-1" d="m86.26,20.94c0,.08-.02.17-.05.27-.03.09-.08.18-.14.26-.06.08-.13.15-.21.2-.08.05-.17.08-.27.09.1,0,.2.04.3.09.1.05.19.12.27.21.08.09.14.19.19.3.05.11.08.23.08.36,0,.23-.03.42-.1.57-.07.16-.16.28-.28.38-.12.1-.25.16-.41.21s-.32.06-.5.06h-1.91v-4.13h1.82c.17,0,.32.02.47.05.15.03.27.09.38.18.11.08.2.2.26.35.06.15.1.34.1.57Zm-2.23.53h.97c.08,0,.15-.02.21-.05.06-.03.11-.07.15-.12.04-.05.07-.11.09-.17.02-.06.03-.12.03-.18s-.01-.12-.03-.18c-.02-.06-.05-.11-.09-.15-.04-.04-.08-.08-.13-.1-.05-.03-.1-.04-.16-.04h-1.03v.98Zm1.12,1.75c.07,0,.13-.02.19-.05.06-.03.11-.08.16-.13.05-.05.08-.11.11-.18s.04-.13.04-.2c0-.14-.05-.26-.16-.35-.1-.09-.25-.14-.43-.14h-1.03v1.05h1.12Z"/>
    <path class="cls-1" d="m88.42,23.92l2.11-4.12h.08l2.11,4.12h-.86l-.32-.65h-1.95l-.32.65h-.86Zm1.56-1.34h1.18l-.59-1.25-.59,1.25Z"/>
    <path class="cls-1" d="m97.9,23.22v.7h-2.97v-4.13h.79v3.43h2.18Z"/>
    <path class="cls-1" d="m103.88,19.79v4.13h-.79v-1.64h-2.04v1.64h-.79v-4.13h.79v1.79h2.04v-1.79h.79Z"/>
    <path class="cls-1" d="m108.57,24c-.29,0-.57-.06-.83-.17-.26-.11-.49-.27-.68-.46-.19-.19-.35-.42-.46-.68-.11-.26-.17-.54-.17-.83s.06-.57.17-.83.27-.49.46-.68c.19-.19.42-.35.68-.46.26-.11.54-.17.83-.17s.58.06.83.17c.26.11.49.27.68.46.19.19.35.42.46.68s.17.54.17.83-.06.58-.17.83c-.11.26-.27.49-.46.68s-.42.35-.68.46c-.26.11-.54.17-.83.17Zm0-3.55c-.19,0-.36.04-.53.12-.16.08-.31.18-.43.31s-.22.28-.29.45c-.07.17-.11.35-.11.53s.04.37.11.54.17.32.29.45c.12.13.26.23.43.31.16.08.34.12.53.12s.36-.04.53-.12c.16-.08.31-.18.43-.31.12-.13.22-.28.29-.45s.11-.35.11-.54-.04-.36-.11-.53c-.07-.17-.17-.32-.29-.45s-.26-.23-.43-.31c-.16-.08-.34-.12-.53-.12Z"/>
  </g>
</svg>