<?xml version="1.0" encoding="UTF-8"?>
<svg id="svg68" xmlns="http://www.w3.org/2000/svg" viewBox="0 0 89.32 24">
  <defs>
    <style>
      .cls-1 {
        fill: #fff;
      }
    </style>
  </defs>
  <g>
    <path class="cls-1" d="m20.86,7.48c.64.02,1.17-.49,1.18-1.13h0c.02-.64-.49-1.17-1.13-1.18s-1.17.49-1.18,1.13c-.02.64.49,1.17,1.13,1.18Z"/>
    <path class="cls-1" d="m21.28,4.27c.43.01.78-.33.79-.75h0c.01-.43-.33-.78-.75-.79-.43-.01-.78.33-.79.75-.01.43.33.78.75.79Z"/>
    <path class="cls-1" d="m23.67,5.59c-.29,0-.53.22-.54.51,0,.29.22.53.51.54h0c.29,0,.53-.22.54-.51,0-.29-.22-.53-.51-.54Z"/>
    <path class="cls-1" d="m13.83,16.65c2.31-.14,4.62-1.62,7.1-4-.06.62-.19,1.25-.42,1.86-1.39,3.78-5.57,5.71-9.35,4.33-.46-.17-.89-.38-1.29-.62l-3.08.88c.96.93,2.13,1.68,3.47,2.17,5.12,1.88,10.8-.75,12.69-5.87.94-2.57.75-5.27-.31-7.57-2.47,3.4-4.89,6.77-8.8,8.81Z"/>
    <path class="cls-1" d="m20.96,8.22s-.05,0-.07,0c-.91,0-1.67-.63-1.88-1.47l-.27.35c-.4.56-.81,1.11-1.24,1.64h0s0,0,0,0C13.4,13.81,7.9,17.57,0,19.15c9-.22,16.05-3.83,20.96-10.93Z"/>
    <path class="cls-1" d="m7.29,15.52c-.98-1.78-1.21-3.97-.46-6.03,1.3-3.54,5.07-5.47,8.65-4.55-1.42,3.49-3.63,6.84-6.49,9.98,2.9-1.97,5.27-4.41,7.43-7.11l2.95-3.89c-.69-.49-1.46-.89-2.29-1.2-5.12-1.88-10.8.75-12.69,5.87-.98,2.66-.74,5.47.43,7.82l2.46-.89Z"/>
  </g>
  <g id="Layer1000">
    <path id="path10" class="cls-1" d="m28.92,7.73h1.49c.81,0,1.39.07,1.75.22.36.15.64.39.85.72.21.33.31.73.31,1.2,0,.52-.14.95-.41,1.29-.27.34-.64.58-1.1.71-.27.08-.77.11-1.49.11v3.13h-1.4v-7.39Zm1.4,2.89h.45c.36,0,.6-.03.74-.08.14-.05.25-.13.33-.25.08-.12.12-.26.12-.42,0-.29-.11-.5-.33-.63-.16-.1-.46-.15-.9-.15h-.4v1.52Zm3.9-.97h1.18v.69c.13-.27.3-.48.5-.62.21-.14.44-.21.69-.21.18,0,.36.05.56.14l-.43,1.18c-.16-.08-.29-.12-.39-.12-.21,0-.39.13-.53.39-.15.26-.22.77-.22,1.53v.27s0,2.2,0,2.2h-1.37v-5.47Zm6.18-.13c.52,0,1,.13,1.46.39.46.26.81.61,1.07,1.05.26.44.38.92.38,1.43s-.13.99-.38,1.44c-.26.45-.61.8-1.05,1.05-.44.25-.93.38-1.47.38-.79,0-1.46-.28-2.01-.83-.56-.56-.83-1.23-.83-2.03,0-.85.31-1.56.94-2.13.55-.49,1.18-.74,1.9-.74h0Zm.02,1.29c-.43,0-.78.15-1.07.44-.28.3-.43.67-.43,1.14s.14.86.42,1.15c.28.29.63.44,1.07.44s.79-.15,1.07-.45c.28-.3.43-.68.43-1.15s-.14-.85-.42-1.14c-.28-.29-.64-.44-1.07-.44h0Zm.22-4.12h1.62l-1.84,1.97h-.98l1.2-1.97Zm3.97,5.06h2.55v1.28h-2.55v-1.28Z"/>
    <path id="path19" class="cls-1" d="m48.53,7.79h.74v7.39h-.74v-7.39Zm2.32,1.92h.7v.95c.25-.35.5-.6.75-.77.36-.21.73-.31,1.12-.31.27,0,.52.05.75.16.24.1.43.24.58.41.15.17.28.42.39.74.23-.43.53-.75.88-.98.35-.22.73-.33,1.13-.33.38,0,.71.1,1,.29.29.19.5.46.65.8.14.34.21.85.21,1.54v2.98h-.72v-2.98c0-.59-.04-.99-.13-1.21-.08-.22-.23-.4-.43-.53-.2-.13-.44-.2-.72-.2-.34,0-.65.1-.93.3-.28.2-.49.47-.62.8-.13.33-.2.89-.2,1.68v2.14h-.7v-2.8c0-.66-.04-1.11-.12-1.34-.08-.24-.22-.43-.43-.57-.21-.14-.45-.21-.73-.21-.33,0-.63.1-.91.29-.28.2-.49.46-.63.79-.14.33-.2.84-.2,1.52v2.31h-.7v-5.47Zm15.1,0v5.47h-.7v-.94c-.3.36-.62.63-.99.81-.37.18-.77.27-1.2.27-.77,0-1.43-.28-1.98-.84-.55-.56-.82-1.24-.82-2.04s.28-1.46.83-2.01c.55-.56,1.21-.84,1.99-.84.45,0,.85.09,1.22.28.36.19.68.47.96.86v-1.01h.7Zm-2.82.55c-.39,0-.75.1-1.08.29-.33.19-.59.46-.79.81-.2.35-.29.71-.29,1.1s.1.75.3,1.1c.2.35.46.62.79.82.33.2.69.29,1.07.29s.75-.1,1.09-.29c.34-.19.61-.45.79-.79.19-.33.28-.7.28-1.12,0-.63-.21-1.16-.62-1.58-.42-.42-.93-.63-1.53-.63h0Zm9.13-.55h.7v4.35c0,.77-.07,1.33-.2,1.68-.18.5-.5.89-.96,1.16-.45.27-1,.41-1.64.41-.47,0-.89-.07-1.26-.2-.37-.13-.68-.31-.91-.54-.23-.22-.45-.55-.65-.98h.76c.21.36.48.63.8.81.33.18.74.26,1.22.26s.89-.09,1.21-.27c.33-.18.57-.4.71-.67.14-.27.21-.7.21-1.31v-.28c-.26.33-.59.59-.97.77-.38.18-.79.27-1.22.27-.5,0-.97-.13-1.42-.37-.44-.25-.78-.58-1.03-1.01-.24-.42-.36-.89-.36-1.39s.13-.98.38-1.41c.25-.44.6-.78,1.04-1.04.44-.25.91-.38,1.4-.38.41,0,.79.08,1.14.25.35.17.69.44,1.02.83v-.95Zm-2.08.55c-.4,0-.77.1-1.11.29-.34.19-.61.46-.8.8-.19.34-.29.71-.29,1.1,0,.6.2,1.09.6,1.49.4.39.92.59,1.56.59s1.17-.19,1.56-.58c.39-.39.59-.9.59-1.53,0-.41-.09-.78-.27-1.1-.18-.32-.44-.58-.77-.77-.33-.19-.69-.28-1.07-.28h0Zm8.89,3.11l.59.31c-.2.38-.42.69-.68.92-.26.23-.54.41-.86.53-.32.12-.68.18-1.08.18-.9,0-1.59-.29-2.1-.87-.5-.58-.76-1.24-.76-1.98,0-.69.21-1.31.64-1.85.54-.69,1.27-1.03,2.17-1.03s1.68.35,2.24,1.06c.4.5.6,1.12.61,1.86h-4.94c.01.63.22,1.15.61,1.55.39.4.88.61,1.46.61.28,0,.55-.05.82-.14.26-.1.49-.22.67-.38.19-.16.39-.42.6-.77h0Zm0-1.47c-.09-.38-.23-.67-.41-.9-.18-.22-.42-.4-.72-.54-.3-.14-.61-.21-.93-.21-.54,0-1,.17-1.39.52-.28.25-.5.63-.64,1.13h4.1Zm2.07-2.18h.7v.95c.25-.35.5-.6.75-.77.36-.21.73-.31,1.12-.31.27,0,.52.05.75.16.24.1.43.24.58.41.15.17.28.42.39.74.23-.43.53-.75.88-.98.35-.22.73-.33,1.13-.33.38,0,.71.1,1,.29.29.19.5.46.65.8.14.34.21.85.21,1.54v2.98h-.72v-2.98c0-.59-.04-.99-.13-1.21-.08-.22-.23-.4-.43-.53-.2-.13-.44-.2-.72-.2-.34,0-.65.1-.93.3-.28.2-.49.47-.62.8-.13.33-.2.89-.2,1.68v2.14h-.7v-2.8c0-.66-.04-1.11-.12-1.34-.08-.24-.22-.43-.43-.57-.21-.14-.45-.21-.73-.21-.33,0-.63.1-.91.29-.28.2-.49.46-.63.79-.14.33-.2.84-.2,1.52v2.31h-.7v-5.47Z"/>
  </g>
</svg>